<svg width="100" height="100" xmlns="http://www.w3.org/2000/svg">

 <g>
  <title>Layer 1</title>
  <path id="svg_1" d="m259.49999,241.80257l82.30258,-82.30257l116.39488,0l82.30258,82.30257l0,116.39488l-82.30258,82.30258l-116.39488,0l-82.30258,-82.30258l0,-116.39488z" stroke="#000" fill="#fff"/>
  <path id="svg_5" d="m37.50012,45.75004" opacity="NaN" stroke="#000" fill="#293414"/>
  <ellipse transform="rotate(-4.03386, 50, 50)" ry="33.28155" rx="32.95639" id="svg_6" cy="50" cx="50" stroke="#000" fill="#000000"/>
  <path id="svg_3" d="m50.04076,39.21057c-5.85945,0 -10.60734,4.74789 -10.60734,10.60734c0,5.85673 4.74789,10.60734 10.60734,10.60734c1.34256,0 2.61447,-0.27721 3.79668,-0.73379l2.27203,3.4923l3.69341,-2.4052l-2.25844,-3.46784c1.91601,-1.91872 3.10366,-4.56852 3.10366,-7.49281c0,-5.85945 -4.74789,-10.60734 -10.60734,-10.60734zm-0.04077,-28.71021c-21.8153,0 -39.49964,17.68434 -39.49964,39.49964c0,21.8153 17.68434,39.49964 39.49964,39.49964c21.8153,0 39.49964,-17.68434 39.49964,-39.49964c0,-21.8153 -17.68434,-39.49964 -39.49964,-39.49964zm27.65029,52.56926c-0.65498,1.36974 -1.3942,2.69056 -2.24485,3.94072l-8.58263,-1.84535c-1.30723,1.42953 -2.79656,2.70143 -4.44079,3.76407l0.32341,8.70221c-1.37789,0.62508 -2.79384,1.14417 -4.26414,1.54911l-5.31318,-6.8324c-1.011,0.1386 -2.03831,0.23373 -3.08735,0.23373c-0.96752,0 -1.91872,-0.07881 -2.85635,-0.20111l-5.28601,6.79435c-1.4703,-0.41038 -2.89439,-0.92947 -4.26685,-1.54639l0.31798,-8.55001c-1.72305,-1.08166 -3.28303,-2.39161 -4.65277,-3.87822l-8.35433,1.78827c-0.85065,-1.23929 -1.58444,-2.56555 -2.24485,-3.93529l5.67464,-6.27526c-0.61421,-1.91057 -0.96208,-3.94344 -1.04633,-6.04154l-7.52271,-3.97877c0.14948,-1.53009 0.44843,-3.00854 0.81804,-4.46525l8.38151,-1.16048c0.78814,-1.90785 1.83447,-3.67439 3.08464,-5.27785l-3.21237,-7.88417c1.08438,-1.0572 2.25572,-2.022 3.48686,-2.90798l7.23734,4.54406c1.76653,-0.91588 3.66623,-1.61162 5.66649,-2.03831l2.63077,-8.15594c0.75553,-0.05707 1.50835,-0.11415 2.27475,-0.11415c0.7664,0 1.52193,0.05979 2.27475,0.11415l2.65251,8.22932c1.95677,0.44299 3.80755,1.13058 5.53332,2.03831l7.34877,-4.61201c1.23657,0.88598 2.41064,1.85078 3.4923,2.90798l-3.30477,8.11517c1.16319,1.53281 2.15517,3.20965 2.90255,5.01423l8.656,1.19852c0.36689,1.45399 0.67128,2.93788 0.82076,4.46525l-7.79176,4.12009c-0.0924,1.97308 -0.40766,3.88637 -0.9648,5.70726l5.85945,6.47366z" stroke="#000" fill="#fff"/>
 </g>
</svg>